Coordinates
version=1
nRows=24
nColumns=24
inDegrees=yes

Units are S.I. units (second, meters, Newtons, ...)
Angles are in degrees.

endheader
time	pelvis_tilt	pelvis_list	pelvis_rotation	pelvis_tx	pelvis_ty	pelvis_tz	hip_flexion_r	hip_adduction_r	hip_rotation_r	knee_angle_r	ankle_angle_r	subtalar_angle_r	mtp_angle_r	hip_flexion_l	hip_adduction_l	hip_rotation_l	knee_angle_l	ankle_angle_l	subtalar_angle_l	mtp_angle_l	lumbar_extension	lumbar_bending	lumbar_rotation
      5.13500000	     10.53714006	      8.32633002	      5.36176033	      0.78586601	      0.75834515	     -0.33771449	     13.66628627	    -11.93312602	     -6.01171169	    -53.43612696	     23.43800060	     -0.81508365	      0.00000000	     -7.67187102	     13.41276239	      8.20823434	    -14.32396192	     24.29778977	      3.56776002	      0.00000000	    -33.52384755	     -0.60558760	     -5.55771596
      5.14000000	     10.53740838	      8.43679058	      5.64692108	      0.79265015	      0.75824573	     -0.33778424	     14.26994389	    -12.10035105	     -6.12194842	    -52.08719169	     23.69935478	     -0.60996165	      0.00000000	     -8.49262456	     13.36933037	      8.37778942	    -13.93489003	     24.64159535	      3.87431161	      0.00000000	    -33.63916143	     -0.57174768	     -6.13632709
      5.14500000	     10.54100494	      8.55608742	      5.93776243	      0.79944051	      0.75807295	     -0.33783828	     14.82673907	    -12.27760826	     -6.24609858	    -50.66089377	     23.88467924	     -0.49914831	      0.00000000	     -9.31000600	     13.32575699	      8.53671950	    -13.56324358	     24.99362989	      4.18871354	      0.00000000	    -33.75927330	     -0.54773037	     -6.69423955
      5.15000000	     10.54910839	      8.68422066	      6.23184686	      0.80623165	      0.75782825	     -0.33788054	     15.33601685	    -12.47173179	     -6.40284911	    -49.16014664	     23.99979558	     -0.46834314	      0.00000000	    -10.11880219	     13.28445433	      8.68738964	    -13.22365766	     25.35261858	      4.50800823	      0.00000000	    -33.88579515	     -0.53593949	     -7.24143073
      5.15500000	     10.57039666	      8.81740431	      6.53564489	      0.81302212	      0.75752627	     -0.33792208	     15.78275330	    -12.67892788	     -6.59827720	    -47.58425736	     24.03764585	     -0.49006959	      0.00000000	    -10.92870347	     13.23832013	      8.82448315	    -12.91458088	     25.72751632	      4.82836932	      0.00000000	    -34.02819798	     -0.52071458	     -7.78148594
      5.16000000	     10.61782617	      8.94145290	      6.83638359	      0.81984251	      0.75718820	     -0.33795977	     16.14680404	    -12.87802934	     -6.82764453	    -45.92268370	     24.01197135	     -0.53797122	      0.00000000	    -11.76329687	     13.17243168	      8.95577188	    -12.61517045	     26.11855408	      5.16536161	      0.00000000	    -34.19333174	     -0.49440949	     -8.28211809
      5.16500000	     10.62681503	      9.11027245	      7.15050689	      0.82664345	      0.75673495	     -0.33796184	     16.51655315	    -13.13217536	     -7.08519292	    -44.21982950	     23.95240553	     -0.66364405	      0.00000000	    -12.53804899	     13.14920684	      9.08831206	    -12.36533586	     26.49309202	      5.46819770	      0.00000000	    -34.32632874	     -0.52729051	     -8.81585886
      5.17000000	     10.64466981	      9.28258183	      7.46918742	      0.83347176	      0.75623366	     -0.33798744	     16.82072128	    -13.40058885	     -7.39485910	    -42.44473579	     23.85465826	     -0.78900466	      0.00000000	    -13.31518169	     13.12297175	      9.22466331	    -12.14075917	     26.86993929	      5.77300419	      0.00000000	    -34.46240343	     -0.55418612	     -9.33168502
      5.17500000	     10.66651399	      9.46047983	      7.78558832	      0.84032901	      0.75568306	     -0.33800326	     17.06829743	    -13.67502228	     -7.73685400	    -40.60673638	     23.71875156	     -0.87646883	      0.00000000	    -14.09003378	     13.09464656	      9.35717786	    -11.93695803	     27.24986728	      6.07309356	      0.00000000	    -34.59780723	     -0.58686565	     -9.82126360
      5.18000000	     10.69505401	      9.64493150	      8.09919556	      0.84721592	      0.75508754	     -0.33800849	     17.25529546	    -13.95758180	     -8.12354076	    -38.71152826	     23.56132574	     -0.90492854	      0.00000000	    -14.86267687	     13.06439993	      9.48656973	    -11.76101174	     27.63200630	      6.37566469	      0.00000000	    -34.73581603	     -0.62952942	    -10.29333483
      5.18500000	     10.68978513	      9.85181984	      8.40470681	      0.85413498	      0.75441898	     -0.33798821	     17.43779640	    -14.26032800	     -8.52028403	    -36.78299827	     23.38147659	     -0.86147705	      0.00000000	    -15.60395276	     13.05356000	      9.64351161	    -11.58458676	     27.95577196	      6.69998551	      0.00000000	    -34.83517811	     -0.71395796	    -10.71857132
      5.19000000	     10.79112523	     10.02040762	      8.70312190	      0.86110612	      0.75380319	     -0.33793230	     17.43087653	    -14.50771030	     -9.01113050	    -34.78234753	     23.26068579	     -0.60063176	      0.00000000	    -16.43430167	     12.97293591	      9.73753744	    -11.45571284	     28.39072306	      7.01896179	      0.00000000	    -35.03809545	     -0.74472362	    -11.14096623
      5.19500000	     10.79073642	     10.24181990	      9.02165423	      0.86810362	      0.75305701	     -0.33788945	     17.50219100	    -14.82198897	     -9.52394694	    -32.79749867	     23.08901882	     -0.32250040	      0.00000000	    -17.14878398	     12.95285139	      9.85175386	    -11.36902587	     28.75127781	      7.34330272	      0.00000000	    -35.12800078	     -0.84113601	    -11.59486080
      5.20000000	     10.82024261	     10.44614294	      9.32414344	      0.87516833	      0.75231330	     -0.33781890	     17.48680001	    -15.10221185	    -10.07543297	    -30.78445320	     22.96456325	      0.20047982	      0.00000000	    -17.88864065	     12.89933924	      9.96611373	    -11.29711339	     29.11058145	      7.70324928	      0.00000000	    -35.23638662	     -0.92740176	    -11.98491060
      5.20500000	     10.85222291	     10.65369214	      9.61100001	      0.88230046	      0.75154285	     -0.33771293	     17.42935357	    -15.36968350	    -10.64984830	    -28.78173527	     22.87505194	      0.91661968	      0.00000000	    -18.62309549	     12.83890304	     10.07030234	    -11.24895248	     29.45844703	      8.08874114	      0.00000000	    -35.33604432	     -1.03106529	    -12.33875825
      5.21000000	     10.87254162	     10.85724254	      9.88809255	      0.88950226	      0.75074184	     -0.33757661	     17.34782370	    -15.61540449	    -11.23433763	    -26.80421835	     22.80641371	      1.81245636	      0.00000000	    -19.32955803	     12.76699298	     10.16589402	    -11.23866583	     29.79493816	      8.49625663	      0.00000000	    -35.40793504	     -1.14206933	    -12.66710199
      5.21500000	     10.88906271	     11.05284860	     10.16376750	      0.89676910	      0.74992857	     -0.33738992	     17.23446964	    -15.83323620	    -11.83826070	    -24.86902752	     22.76776334	      2.90230518	      0.00000000	    -20.01303356	     12.67129704	     10.25232254	    -11.26916427	     30.12203626	      8.93610361	      0.00000000	    -35.46389709	     -1.26089577	    -12.96483318
      5.22000000	     10.89778432	     11.23779602	     10.42571205	      0.90411249	      0.74909896	     -0.33717466	     17.10317404	    -16.01776129	    -12.42263450	    -22.99736895	     22.75112539	      4.15437316	      0.00000000	    -20.66753085	     12.55918710	     10.33364445	    -11.34288840	     30.43501390	      9.40118798	      0.00000000	    -35.49386211	     -1.38119221	    -13.22824125
      5.22500000	     10.89944584	     11.40803791	     10.68208893	      0.91152855	      0.74826518	     -0.33690840	     16.95502741	    -16.16236376	    -12.97875668	    -21.20642734	     22.75995627	      5.54374178	      0.00000000	    -21.28702010	     12.42184916	     10.41371145	    -11.47145548	     30.73569382	      9.89206860	      0.00000000	    -35.50166497	     -1.50424243	    -13.46048544
      5.23000000	     10.88705275	     11.55909271	     10.93213526	      0.91901336	      0.74742951	     -0.33660682	     16.80398332	    -16.26334232	    -13.48396860	    -19.51528300	     22.77032739	      7.01484024	      0.00000000	    -21.85748621	     12.26094467	     10.49461943	    -11.66509570	     31.01732695	     10.39796573	      0.00000000	    -35.47775303	     -1.62049920	    -13.65512224
      5.23500000	     10.87080867	     11.69166688	     11.17705447	      0.92658055	      0.74660661	     -0.33625823	     16.63984879	    -16.32373133	    -13.94053219	    -17.94149937	     22.78409405	      8.55600960	      0.00000000	    -22.39043631	     12.07292702	     10.57741814	    -11.92213426	     31.28639235	     10.92426713	      0.00000000	    -35.43063169	     -1.73392384	    -13.82398721
      5.24000000	     10.84948105	     11.80229818	     11.42129090	      0.93421527	      0.74580346	     -0.33588405	     16.46520493	    -16.34171421	    -14.32711556	    -16.49586668	     22.80929792	     10.10555002	      0.00000000	    -22.87371925	     11.85865714	     10.66941108	    -12.26366050	     31.53254912	     11.46054969	      0.00000000	    -35.36118167	     -1.83369876	    -13.96020783
      5.24500000	     10.81499902	     11.88596246	     11.66491285	      0.94191380	      0.74502318	     -0.33547992	     16.29328342	    -16.31343492	    -14.62664943	    -15.19329772	     22.80736834	     11.59653252	      0.00000000	    -23.29207269	     11.61805352	     10.76884423	    -12.69760207	     31.75132288	     11.98969972	      0.00000000	    -35.26281880	     -1.91704293	    -14.05966024
      5.25000000	     10.78227830	     11.95540966	     11.90153011	      0.94968669	      0.74427934	     -0.33505639	     16.10893367	    -16.25609211	    -14.84512910	    -14.04495542	     22.78434951	     13.01506083	      0.00000000	    -23.66712296	     11.36440890	     10.87270819	    -13.21844554	     31.95337442	     12.51266878	      0.00000000	    -35.14882434	     -1.99240149	    -14.14600880
